<?xml version="1.0" encoding="utf-8"?>
<!-- Generator: Adobe Illustrator 16.0.0, SVG Export Plug-In . SVG Version: 6.00 Build 0)  -->
<!DOCTYPE svg PUBLIC "-//W3C//DTD SVG 1.1//EN" "http://www.w3.org/Graphics/SVG/1.1/DTD/svg11.dtd">
<svg version="1.1" id="Layer_1" xmlns="http://www.w3.org/2000/svg" xmlns:xlink="http://www.w3.org/1999/xlink" x="0px" y="0px"
	 width="75.125px" height="40.707px" viewBox="0 0 75.125 40.707" enable-background="new 0 0 75.125 40.707" xml:space="preserve">
<g>
	<path fill="#195FA5" d="M30.224,30.695l-2.936-0.994L30.224,30.695z"/>
	<path fill="#195FA5" d="M30.224,31.248c-0.059,0-0.119-0.01-0.178-0.029l-2.935-0.992c-0.29-0.1-0.445-0.414-0.347-0.703
		c0.098-0.287,0.412-0.443,0.702-0.346l2.935,0.994c0.29,0.096,0.445,0.41,0.348,0.699C30.67,31.103,30.454,31.248,30.224,31.248"/>
	<path fill="#195FA5" d="M25.645,30.554c-0.697-0.238-1.072-0.994-0.835-1.691c0.236-0.699,0.994-1.072,1.691-0.838
		c0.698,0.238,1.072,0.994,0.835,1.693C27.1,30.416,26.342,30.789,25.645,30.554"/>
	<path fill="#195FA5" d="M39.307,30.695l2.936-0.994L39.307,30.695z"/>
	<path fill="#195FA5" d="M39.307,31.248c-0.229,0-0.445-0.145-0.522-0.377c-0.099-0.289,0.058-0.604,0.346-0.699l2.936-0.994
		c0.289-0.098,0.604,0.059,0.702,0.346c0.097,0.289-0.058,0.604-0.348,0.703l-2.936,0.992
		C39.427,31.238,39.368,31.248,39.307,31.248"/>
	<path fill="#195FA5" d="M43.886,30.554c0.699-0.238,1.073-0.994,0.838-1.691c-0.237-0.699-0.994-1.072-1.692-0.838
		c-0.699,0.238-1.073,0.994-0.836,1.693C42.433,30.416,43.189,30.789,43.886,30.554"/>
	<path fill="#195FA5" d="M41.978,17.436c0,3.937-3.192,7.126-7.127,7.126c-3.935,0-7.126-3.19-7.126-7.126
		c0-3.935,3.191-7.126,7.126-7.126C38.786,10.31,41.978,13.5,41.978,17.436"/>
	<path fill="#195FA5" d="M34.851,25.115c-4.234,0-7.679-3.445-7.679-7.679s3.445-7.679,7.679-7.679c4.235,0,7.68,3.445,7.68,7.679
		S39.086,25.115,34.851,25.115 M34.851,10.862c-3.625,0-6.573,2.95-6.573,6.573c0,3.625,2.949,6.574,6.573,6.574
		c3.624,0,6.572-2.949,6.572-6.574C41.423,13.812,38.475,10.862,34.851,10.862"/>
	<path fill="#195FA5" d="M34.851,29.792v-5.23V29.792z"/>
	<path fill="#195FA5" d="M34.851,30.347c-0.305,0-0.553-0.248-0.553-0.555v-5.23c0-0.307,0.248-0.553,0.553-0.553
		c0.306,0,0.553,0.246,0.553,0.553v5.23C35.404,30.099,35.157,30.347,34.851,30.347"/>
	<path fill="#195FA5" d="M23.538,12.011l4.532,2.616L23.538,12.011z"/>
	<path fill="#195FA5" d="M28.069,15.18c-0.093,0-0.189-0.023-0.277-0.074l-4.531-2.616c-0.264-0.153-0.355-0.492-0.203-0.757
		c0.153-0.264,0.492-0.354,0.756-0.202l4.531,2.617c0.266,0.152,0.355,0.491,0.203,0.755C28.446,15.082,28.261,15.18,28.069,15.18"
		/>
	<path fill="#195FA5" d="M46.153,12.011l-4.531,2.616L46.153,12.011z"/>
	<path fill="#195FA5" d="M41.622,15.18c-0.191,0-0.378-0.098-0.479-0.276c-0.152-0.265-0.063-0.604,0.202-0.755l4.531-2.617
		c0.265-0.152,0.604-0.062,0.757,0.202c0.152,0.265,0.062,0.604-0.204,0.757l-4.531,2.616C41.811,15.157,41.714,15.18,41.622,15.18"
		/>
	<path fill="#195FA5" d="M53.562,10.796c0,2.762-2.238,5-4.999,5c-2.762,0-5-2.238-5-5c0-2.761,2.238-4.999,5-4.999
		C51.324,5.797,53.562,8.035,53.562,10.796"/>
	<path fill="#195FA5" d="M48.562,16.349c-3.061,0-5.552-2.491-5.552-5.553c0-3.062,2.491-5.552,5.552-5.552
		c3.062,0,5.553,2.49,5.553,5.552C54.115,13.858,51.624,16.349,48.562,16.349 M48.562,6.351c-2.451,0-4.445,1.994-4.445,4.445
		c0,2.452,1.994,4.447,4.445,4.447c2.452,0,4.446-1.995,4.446-4.447C53.008,8.345,51.014,6.351,48.562,6.351"/>
	<path fill="#195FA5" d="M26.437,10.796c0,2.762-2.238,5-4.999,5s-4.999-2.238-4.999-5c0-2.761,2.238-4.999,4.999-4.999
		S26.437,8.035,26.437,10.796"/>
	<path fill="#195FA5" d="M21.438,16.349c-3.062,0-5.552-2.491-5.552-5.553c0-3.062,2.49-5.552,5.552-5.552s5.552,2.49,5.552,5.552
		C26.99,13.858,24.5,16.349,21.438,16.349 M21.438,6.351c-2.453,0-4.446,1.994-4.446,4.445c0,2.452,1.994,4.447,4.446,4.447
		c2.452,0,4.446-1.995,4.446-4.447C25.884,8.345,23.89,6.351,21.438,6.351"/>
	<path fill="#195FA5" d="M39.85,33.509c0,2.76-2.238,4.998-4.999,4.998s-4.999-2.238-4.999-4.998c0-2.762,2.238-5.002,4.999-5.002
		S39.85,30.748,39.85,33.509"/>
	<path fill="#195FA5" d="M34.851,39.062c-3.062,0-5.552-2.494-5.552-5.553c0-3.063,2.491-5.555,5.552-5.555
		c3.063,0,5.552,2.492,5.552,5.555C40.403,36.568,37.914,39.062,34.851,39.062 M34.851,29.062c-2.453,0-4.446,1.994-4.446,4.447
		c0,2.449,1.993,4.445,4.446,4.445c2.452,0,4.446-1.996,4.446-4.445C39.297,31.056,37.303,29.062,34.851,29.062"/>
	<path fill="#195FA5" d="M21.438,15.796v3.099V15.796z"/>
	<path fill="#195FA5" d="M21.438,19.448c-0.306,0-0.553-0.248-0.553-0.553v-3.099c0-0.306,0.248-0.553,0.553-0.553
		s0.553,0.248,0.553,0.553v3.099C21.991,19.2,21.744,19.448,21.438,19.448"/>
	<path fill="#195FA5" d="M22.771,20.178c0,0.736-0.597,1.335-1.333,1.335s-1.334-0.599-1.334-1.335c0-0.735,0.598-1.334,1.334-1.334
		S22.771,19.442,22.771,20.178"/>
	<path fill="#195FA5" d="M24.997,6.989l2.622-1.652L24.997,6.989z"/>
	<path fill="#195FA5" d="M24.997,7.542c-0.183,0-0.363-0.091-0.469-0.257c-0.162-0.26-0.085-0.601,0.174-0.764l2.621-1.652
		c0.258-0.163,0.6-0.086,0.763,0.172c0.162,0.26,0.085,0.601-0.173,0.764l-2.622,1.652C25.2,7.515,25.098,7.542,24.997,7.542"/>
	<path fill="#195FA5" d="M27.993,3.524c0.624-0.394,1.447-0.206,1.84,0.417c0.393,0.622,0.206,1.447-0.417,1.84
		c-0.624,0.393-1.447,0.206-1.839-0.418C27.183,4.74,27.37,3.916,27.993,3.524"/>
	<path fill="#195FA5" d="M48.562,15.796v3.099V15.796z"/>
	<path fill="#195FA5" d="M48.562,19.448c-0.306,0-0.554-0.248-0.554-0.553v-3.099c0-0.306,0.248-0.553,0.554-0.553
		c0.305,0,0.555,0.248,0.555,0.553v3.099C49.117,19.2,48.867,19.448,48.562,19.448"/>
	<path fill="#195FA5" d="M47.229,20.178c0,0.736,0.597,1.335,1.333,1.335c0.737,0,1.334-0.599,1.334-1.335
		c0-0.735-0.597-1.334-1.334-1.334C47.826,18.844,47.229,19.442,47.229,20.178"/>
	<path fill="#195FA5" d="M45.004,6.989l-2.621-1.652L45.004,6.989z"/>
	<path fill="#195FA5" d="M45.002,7.542c-0.1,0-0.201-0.027-0.293-0.085l-2.621-1.652c-0.26-0.164-0.337-0.504-0.174-0.764
		c0.163-0.258,0.504-0.335,0.764-0.172l2.621,1.652c0.259,0.164,0.336,0.504,0.172,0.764C45.367,7.45,45.187,7.542,45.002,7.542"/>
	<path fill="#195FA5" d="M42.007,3.524c-0.623-0.394-1.446-0.206-1.84,0.417c-0.393,0.622-0.205,1.447,0.418,1.84
		s1.447,0.206,1.84-0.418C42.817,4.74,42.631,3.916,42.007,3.524"/>
</g>
</svg>
