<?xml version="1.0" encoding="utf-8"?>
<!-- Generator: Adobe Illustrator 16.0.0, SVG Export Plug-In . SVG Version: 6.00 Build 0)  -->
<!DOCTYPE svg PUBLIC "-//W3C//DTD SVG 1.1//EN" "http://www.w3.org/Graphics/SVG/1.1/DTD/svg11.dtd">
<svg version="1.1" id="Layer_1" xmlns="http://www.w3.org/2000/svg" xmlns:xlink="http://www.w3.org/1999/xlink" x="0px" y="0px"
	 width="55.721px" height="51.741px" viewBox="0 0 55.721 51.741" enable-background="new 0 0 55.721 51.741" xml:space="preserve">
<path fill="#195FA5" d="M42.14,6.817c1.093,0.996,1.289,2.561,1.289,2.561s-1.575-0.053-2.668-1.049
	c-1.093-0.997-1.289-2.561-1.289-2.561S41.047,5.82,42.14,6.817"/>
<path fill="#195FA5" d="M34.456,43.542c-0.94,1.207-0.997,2.633-0.984,2.637c-0.004,0.019,1.974-0.535,2.861-1.865
	c0.888-1.314,0.455-2.678,0.469-2.674C36.795,41.653,35.394,42.347,34.456,43.542"/>
<path fill="#195FA5" d="M35.841,47.722c-1.736-0.295-2.384-1.607-2.383-1.596c0.021,0.007,1.88-0.53,3.482-0.341
	c1.619,0.196,2.569,1.202,2.57,1.212C39.534,47.003,37.596,48.024,35.841,47.722"/>
<path fill="#195FA5" d="M37.887,42.034c-0.646,1.324-0.414,2.708-0.402,2.711c-0.002,0.018,1.736-0.846,2.322-2.281
	c0.587-1.422-0.081-2.666-0.069-2.664C39.735,39.813,38.534,40.723,37.887,42.034"/>
<path fill="#195FA5" d="M40.007,45.838c-1.687,0.005-2.546-1.153-2.545-1.143c0.019,0.004,1.648-0.824,3.205-0.913
	c1.571-0.082,2.672,0.729,2.673,0.738C43.361,44.522,41.712,45.837,40.007,45.838"/>
<path fill="#195FA5" d="M40.85,39.995c-0.367,1.393,0.121,2.689,0.133,2.69c0,0.018,1.489-1.11,1.787-2.604
	c0.301-1.477-0.569-2.57-0.558-2.57C42.211,37.524,41.218,38.615,40.85,39.995"/>
<path fill="#195FA5" d="M43.594,43.315c-1.61,0.293-2.645-0.685-2.643-0.673c0.018,0,1.409-1.077,2.89-1.431
	c1.495-0.35,2.709,0.246,2.711,0.257C46.573,41.467,45.222,43.024,43.594,43.315"/>
<path fill="#195FA5" d="M43.323,37.509c-0.104,1.414,0.608,2.588,0.619,2.586c0.003,0.018,1.231-1.332,1.257-2.836
	c0.03-1.488-1.006-2.4-0.995-2.402C44.205,34.87,43.428,36.104,43.323,37.509"/>
<path fill="#195FA5" d="M46.579,40.256c-1.505,0.562-2.678-0.208-2.674-0.196c0.016-0.004,1.16-1.287,2.536-1.889
	c1.391-0.6,2.678-0.232,2.682-0.223C49.141,37.942,48.1,39.692,46.579,40.256"/>
<path fill="#195FA5" d="M45.285,34.659c0.146,1.395,1.047,2.411,1.056,2.408c0.005,0.018,0.965-1.511,0.733-2.982
	c-0.227-1.457-1.394-2.166-1.383-2.17C45.694,31.929,45.143,33.273,45.285,34.659"/>
<path fill="#195FA5" d="M48.937,36.763c-1.369,0.811-2.646,0.266-2.64,0.276c0.015-0.005,0.902-1.454,2.146-2.283
	c1.256-0.831,2.579-0.7,2.584-0.692C51.043,34.056,50.322,35.948,48.937,36.763"/>
<path fill="#195FA5" d="M46.715,31.53c0.378,1.339,1.433,2.171,1.439,2.166c0.009,0.017,0.688-1.646,0.216-3.045
	c-0.464-1.389-1.725-1.877-1.716-1.881C46.66,28.782,46.344,30.201,46.715,31.53"/>
<path fill="#195FA5" d="M50.644,32.938c-1.203,1.035-2.541,0.729-2.535,0.738c0.013-0.009,0.636-1.58,1.715-2.613
	c1.091-1.037,2.409-1.146,2.416-1.139C52.254,29.914,51.862,31.898,50.644,32.938"/>
<path fill="#195FA5" d="M47.594,28.208c0.593,1.248,1.765,1.875,1.771,1.869c0.011,0.015,0.399-1.736-0.297-3.031
	c-0.685-1.282-2.003-1.538-1.994-1.545C47.083,25.513,47.01,26.97,47.594,28.208"/>
<path fill="#195FA5" d="M51.677,28.889c-1.006,1.23-2.368,1.169-2.36,1.177c0.011-0.01,0.359-1.662,1.245-2.873
	c0.896-1.217,2.167-1.563,2.175-1.556C52.75,25.624,52.698,27.649,51.677,28.889"/>
<path fill="#195FA5" d="M47.901,24.778c0.79,1.125,2.041,1.531,2.048,1.525c0.013,0.012,0.101-1.783-0.802-2.94
	c-0.89-1.146-2.224-1.165-2.217-1.173C46.94,22.202,47.121,23.659,47.901,24.778"/>
<path fill="#195FA5" d="M52.012,24.716c-0.778,1.395-2.123,1.577-2.114,1.584c0.011-0.011,0.075-1.703,0.734-3.061
	c0.669-1.365,1.853-1.938,1.86-1.932C52.505,21.294,52.803,23.31,52.012,24.716"/>
<path fill="#195FA5" d="M47.613,21.324c0.969,0.976,2.263,1.152,2.269,1.146c0.014,0.011-0.209-1.785-1.299-2.775
	c-1.076-0.982-2.388-0.765-2.381-0.773C46.213,18.931,46.655,20.354,47.613,21.324"/>
<path fill="#195FA5" d="M51.625,20.524c-0.519,1.523-1.805,1.945-1.795,1.951c0.008-0.012-0.219-1.7,0.184-3.172
	c0.41-1.479,1.462-2.263,1.472-2.258C51.497,17.03,52.155,18.987,51.625,20.524"/>
<path fill="#195FA5" d="M46.71,17.934c1.129,0.804,2.425,0.746,2.43,0.737c0.017,0.01-0.527-1.741-1.786-2.542
	c-1.244-0.794-2.491-0.345-2.486-0.353C44.882,15.782,45.594,17.135,46.71,17.934"/>
<path fill="#195FA5" d="M50.491,16.419c-0.226,1.615-1.41,2.264-1.398,2.268c0.006-0.013-0.521-1.656-0.41-3.203
	c0.119-1.555,0.995-2.527,1.007-2.523C49.698,12.942,50.727,14.79,50.491,16.419"/>
<path fill="#195FA5" d="M45.171,14.692c1.271,0.609,2.528,0.321,2.532,0.313c0.02,0.007-0.856-1.654-2.266-2.243
	c-1.392-0.585-2.534,0.083-2.529,0.073C42.925,12.84,43.917,14.085,45.171,14.692"/>
<path fill="#195FA5" d="M48.586,12.504c0.101,1.663-0.939,2.523-0.927,2.524c0.004-0.014-0.833-1.569-1.045-3.149
	c-0.205-1.589,0.449-2.724,0.463-2.723C47.084,9.138,48.495,10.826,48.586,12.504"/>
<path fill="#195FA5" d="M42.976,11.687c1.392,0.399,2.57-0.111,2.572-0.119c0.022,0.002-1.195-1.524-2.734-1.884
	c-1.521-0.358-2.514,0.509-2.511,0.5C40.323,10.186,41.602,11.288,42.976,11.687"/>
<path fill="#195FA5" d="M45.886,8.886c0.461,1.665-0.391,2.713-0.376,2.713c0.002-0.015-1.153-1.441-1.722-3.009
	c-0.564-1.579-0.177-2.844-0.162-2.845C43.631,5.728,45.433,7.205,45.886,8.886"/>
<path fill="#195FA5" d="M27.908,46.616l0.027-0.305c2.529,0.229,5.051-0.053,7.493-0.838c2.382-0.764,4.586-1.971,6.552-3.588
	c4.081-3.352,6.713-8.137,7.41-13.473c0.571-4.369,0.278-8.263-0.871-11.572c-1.234-3.555-3.433-6.334-6.533-8.266l0.161-0.26
	c3.162,1.969,5.404,4.803,6.662,8.425c1.165,3.354,1.463,7.296,0.886,11.712c-0.708,5.413-3.379,10.268-7.52,13.672
	c-1.997,1.64-4.235,2.865-6.652,3.642C33.041,46.563,30.478,46.849,27.908,46.616"/>
<path fill="#195FA5" d="M14.502,6.817c-1.093,0.996-1.29,2.561-1.29,2.561s1.576-0.053,2.669-1.049
	c1.093-0.997,1.289-2.561,1.289-2.561S15.595,5.82,14.502,6.817"/>
<path fill="#195FA5" d="M22.186,43.542c0.941,1.207,0.998,2.633,0.985,2.637c0.003,0.019-1.975-0.535-2.861-1.865
	c-0.888-1.314-0.456-2.678-0.469-2.674C19.846,41.653,21.247,42.347,22.186,43.542"/>
<path fill="#195FA5" d="M20.801,47.722c1.735-0.295,2.383-1.607,2.383-1.596c-0.021,0.007-1.881-0.53-3.484-0.341
	c-1.617,0.196-2.568,1.202-2.568,1.212C17.109,47.003,19.046,48.024,20.801,47.722"/>
<path fill="#195FA5" d="M18.754,42.034c0.647,1.324,0.415,2.708,0.403,2.711c0.001,0.018-1.737-0.846-2.322-2.281
	c-0.588-1.422,0.081-2.666,0.068-2.664C16.907,39.813,18.108,40.723,18.754,42.034"/>
<path fill="#195FA5" d="M16.635,45.838c1.687,0.005,2.546-1.153,2.545-1.143c-0.02,0.004-1.648-0.824-3.205-0.913
	c-1.571-0.082-2.672,0.729-2.674,0.738C13.28,44.522,14.93,45.837,16.635,45.838"/>
<path fill="#195FA5" d="M15.792,39.995c0.367,1.393-0.122,2.689-0.133,2.69c-0.001,0.018-1.489-1.11-1.787-2.604
	c-0.302-1.477,0.568-2.57,0.558-2.57C14.431,37.524,15.423,38.615,15.792,39.995"/>
<path fill="#195FA5" d="M13.048,43.315c1.61,0.293,2.645-0.685,2.642-0.673c-0.018,0-1.409-1.077-2.89-1.431
	c-1.495-0.35-2.708,0.246-2.711,0.257C10.069,41.467,11.42,43.024,13.048,43.315"/>
<path fill="#195FA5" d="M13.32,37.509c0.103,1.414-0.609,2.588-0.619,2.586c-0.003,0.018-1.233-1.332-1.258-2.836
	c-0.03-1.488,1.007-2.4,0.996-2.402C12.438,34.87,13.213,36.104,13.32,37.509"/>
<path fill="#195FA5" d="M10.063,40.256c1.505,0.562,2.679-0.208,2.675-0.196c-0.016-0.004-1.16-1.287-2.537-1.889
	c-1.39-0.6-2.678-0.232-2.682-0.223C7.5,37.942,8.542,39.692,10.063,40.256"/>
<path fill="#195FA5" d="M11.358,34.659c-0.146,1.395-1.047,2.411-1.057,2.408c-0.006,0.018-0.965-1.511-0.732-2.982
	c0.225-1.457,1.393-2.166,1.383-2.17C10.948,31.929,11.499,33.273,11.358,34.659"/>
<path fill="#195FA5" d="M7.706,36.763c1.369,0.811,2.645,0.266,2.639,0.276c-0.014-0.005-0.902-1.454-2.146-2.283
	c-1.255-0.831-2.578-0.7-2.583-0.692C5.599,34.056,6.321,35.948,7.706,36.763"/>
<path fill="#195FA5" d="M9.926,31.53c-0.378,1.339-1.432,2.171-1.44,2.166c-0.007,0.017-0.687-1.646-0.214-3.045
	c0.463-1.389,1.725-1.877,1.716-1.881C9.982,28.782,10.297,30.201,9.926,31.53"/>
<path fill="#195FA5" d="M5.998,32.938c1.203,1.035,2.542,0.729,2.535,0.738c-0.014-0.009-0.636-1.58-1.715-2.613
	c-1.092-1.037-2.409-1.146-2.415-1.139C4.387,29.914,4.78,31.898,5.998,32.938"/>
<path fill="#195FA5" d="M9.047,28.208c-0.593,1.248-1.764,1.875-1.771,1.869c-0.01,0.015-0.398-1.736,0.297-3.031
	c0.686-1.282,2.003-1.538,1.995-1.545C9.56,25.513,9.632,26.97,9.047,28.208"/>
<path fill="#195FA5" d="M4.964,28.889c1.007,1.23,2.368,1.169,2.36,1.177c-0.011-0.01-0.359-1.662-1.244-2.873
	c-0.896-1.217-2.167-1.563-2.175-1.556C3.892,25.624,3.943,27.649,4.964,28.889"/>
<path fill="#195FA5" d="M8.742,24.778c-0.79,1.125-2.042,1.531-2.049,1.525c-0.013,0.012-0.1-1.783,0.802-2.94
	c0.89-1.146,2.225-1.165,2.218-1.173C9.702,22.202,9.522,23.659,8.742,24.778"/>
<path fill="#195FA5" d="M4.629,24.716c0.778,1.395,2.123,1.577,2.114,1.584c-0.009-0.011-0.075-1.703-0.734-3.061
	c-0.669-1.365-1.852-1.938-1.86-1.932C4.136,21.294,3.838,23.31,4.629,24.716"/>
<path fill="#195FA5" d="M9.03,21.324C8.06,22.3,6.767,22.477,6.761,22.47c-0.015,0.011,0.209-1.785,1.298-2.775
	c1.076-0.982,2.388-0.765,2.382-0.773C10.428,18.931,9.987,20.354,9.03,21.324"/>
<path fill="#195FA5" d="M5.017,20.524c0.519,1.523,1.805,1.945,1.794,1.951c-0.008-0.012,0.219-1.7-0.183-3.172
	c-0.41-1.479-1.462-2.263-1.473-2.258C5.146,17.03,4.488,18.987,5.017,20.524"/>
<path fill="#195FA5" d="M9.932,17.934c-1.13,0.804-2.425,0.746-2.43,0.737c-0.018,0.01,0.527-1.741,1.785-2.542
	c1.244-0.794,2.492-0.345,2.487-0.353C11.76,15.782,11.048,17.135,9.932,17.934"/>
<path fill="#195FA5" d="M6.151,16.419c0.226,1.615,1.411,2.264,1.399,2.268c-0.005-0.013,0.521-1.656,0.409-3.203
	c-0.119-1.555-0.994-2.527-1.006-2.523C6.945,12.942,5.916,14.79,6.151,16.419"/>
<path fill="#195FA5" d="M11.47,14.692c-1.271,0.609-2.528,0.321-2.531,0.313c-0.02,0.007,0.856-1.654,2.266-2.243
	c1.392-0.585,2.533,0.083,2.529,0.073C13.716,12.84,12.726,14.085,11.47,14.692"/>
<path fill="#195FA5" d="M8.056,12.504c-0.103,1.663,0.938,2.523,0.927,2.524c-0.004-0.014,0.833-1.569,1.044-3.149
	c0.206-1.589-0.45-2.724-0.462-2.723C9.558,9.138,8.148,10.826,8.056,12.504"/>
<path fill="#195FA5" d="M13.667,11.687c-1.392,0.399-2.57-0.111-2.573-0.119c-0.021,0.002,1.196-1.524,2.735-1.884
	c1.52-0.358,2.514,0.509,2.511,0.5C16.319,10.186,15.041,11.288,13.667,11.687"/>
<path fill="#195FA5" d="M10.756,8.886c-0.462,1.665,0.39,2.713,0.375,2.713c-0.001-0.015,1.154-1.441,1.723-3.009
	c0.563-1.579,0.176-2.844,0.161-2.845C13.01,5.728,11.208,7.205,10.756,8.886"/>
<path fill="#195FA5" d="M28.735,46.616l-0.028-0.305c-2.53,0.229-5.05-0.053-7.493-0.838c-2.381-0.764-4.585-1.971-6.552-3.588
	c-4.08-3.352-6.712-8.137-7.41-13.473C6.68,24.044,6.973,20.15,8.123,16.841c1.234-3.555,3.433-6.334,6.534-8.266l-0.162-0.26
	c-3.162,1.969-5.404,4.803-6.661,8.425c-1.165,3.354-1.464,7.296-0.886,11.712c0.708,5.413,3.379,10.268,7.52,13.672
	c1.996,1.64,4.234,2.865,6.652,3.642C23.602,46.563,26.165,46.849,28.735,46.616"/>
<polygon fill="#195FA5" points="28.23,45.055 25.914,46.759 28.23,48.462 30.546,46.759 "/>
<path fill="#195FA5" d="M37.891,20.331l-7.057-0.352l-2.514-6.603l-2.514,6.603l-7.057,0.352l5.503,4.431l-1.848,6.82l5.915-3.865
	l5.915,3.865l-1.848-6.82L37.891,20.331z M33.933,31.165l-0.006-0.004l-5.606-7.547v3.883l-5.605,3.664l5.605-7.547L24.46,24.7
	l0.001-0.006l-5.211-4.197l9.07,3.117l-2.388-3.457h0.003l2.385-6.266v0.001v9.722l2.389-3.457l6.692,0.332l-0.01,0.008
	l-9.071,3.117l3.861,1.086L33.933,31.165z"/>
<path fill="#195FA5" d="M34.387,31.79l-6.066-3.963l-6.065,3.963l1.895-6.994l-5.644-4.545l7.236-0.359l2.578-6.771l2.578,6.771
	l7.237,0.359l-5.644,4.545L34.387,31.79z M34.084,31.374L34.084,31.374z M34.084,31.373l-1.125-4.153L34.084,31.373z M22.557,31.373
	l5.764-3.765l5.565,3.635l-0.023-0.016l-5.45-7.336v3.656L22.557,31.373z M20.901,21.944l3.457,2.783l-0.016,0.059l-1.72,6.346
	l5.465-7.357l-3.757,1.057l0.027-0.104L20.901,21.944z M28.23,23.892l-5.135,6.912l5.135-3.355V23.892z M28.554,23.774l5.166,6.955
	l-1.613-5.957L28.554,23.774z M28.628,23.606l3.628,1.019l0.028,0.103l0.047-0.037l5.105-4.111l-0.016,0.005L28.628,23.606z
	 M19.714,20.754l4.772,3.843l3.527-0.99L19.714,20.754z M19.242,20.397l0.038,0.014l8.808,3.025l-2.323-3.363L19.242,20.397z
	 M30.756,20.251l-2.201,3.186l8.379-2.879L30.756,20.251z M28.413,13.875v9.446l2.251-3.258l0.107,0.006l-0.021-0.057L28.413,13.875
	z M26.038,20.147l2.192,3.174V14.39L26.038,20.147z M37.646,20.409l-0.195,0.158L37.646,20.409L37.646,20.409z"/>
</svg>
