<?xml version="1.0" encoding="utf-8"?>
<!-- Generator: Adobe Illustrator 16.0.0, SVG Export Plug-In . SVG Version: 6.00 Build 0)  -->
<!DOCTYPE svg PUBLIC "-//W3C//DTD SVG 1.1//EN" "http://www.w3.org/Graphics/SVG/1.1/DTD/svg11.dtd">
<svg version="1.1" id="Layer_1" xmlns="http://www.w3.org/2000/svg" xmlns:xlink="http://www.w3.org/1999/xlink" x="0px" y="0px"
	 width="49.386px" height="40.707px" viewBox="0 0 49.386 40.707" enable-background="new 0 0 49.386 40.707" xml:space="preserve">
<path fill="#195FA5" d="M44.794,13.401c-1.547,0-2.801,1.254-2.801,2.794c0,1.541,1.254,2.796,2.801,2.796
	c1.54,0,2.795-1.255,2.795-2.796C47.589,14.655,46.334,13.401,44.794,13.401 M4.598,13.401c-1.546,0-2.801,1.254-2.801,2.794
	c0,1.541,1.255,2.796,2.801,2.796c1.541,0,2.796-1.255,2.796-2.796C7.394,14.655,6.139,13.401,4.598,13.401 M36.476,8.315
	c-2.296,0-4.159,1.864-4.159,4.164c0,2.29,1.863,4.153,4.159,4.153c2.295,0,4.164-1.863,4.164-4.153
	C40.64,10.183,38.766,8.315,36.476,8.315 M49.386,33.618h-4.74v-8.726c0-1.5-0.444-2.891-1.148-4.104
	c0.417-0.123,0.842-0.21,1.297-0.21c2.527,0,4.592,2.063,4.592,4.599V33.618z M12.913,8.315c-2.296,0-4.164,1.864-4.164,4.164
	c0,2.29,1.868,4.153,4.164,4.153c2.29,0,4.158-1.863,4.158-4.153C17.071,10.183,15.203,8.315,12.913,8.315 M4.598,20.579
	c0.452,0,0.874,0.087,1.291,0.21c-0.714,1.213-1.148,2.604-1.148,4.104v8.726H0v-8.44C0,22.642,2.063,20.579,4.598,20.579 M24.688,0
	c-3.389,0-6.151,2.76-6.151,6.151c0,3.394,2.759,6.155,6.151,6.155c3.395,0,6.154-2.762,6.154-6.155C30.846,2.759,28.083,0,24.688,0
	 M43.122,36.865h-7.266V23.589c0-1.826-0.478-3.523-1.261-5.047c0.594-0.176,1.219-0.301,1.873-0.301
	c3.665,0,6.653,2.979,6.653,6.65V36.865z M13.52,23.589v13.275H6.264V24.892c0-3.668,2.982-6.65,6.652-6.65
	c0.654,0,1.271,0.125,1.864,0.301C14.001,20.066,13.52,21.763,13.52,23.589 M15.042,40.707h19.292V23.589
	c0-5.319-4.33-9.647-9.646-9.647c-5.322,0-9.646,4.328-9.646,9.647V40.707z"/>
</svg>
