<?xml version="1.0" encoding="utf-8"?>
<!-- Generator: Adobe Illustrator 16.0.0, SVG Export Plug-In . SVG Version: 6.00 Build 0)  -->
<!DOCTYPE svg PUBLIC "-//W3C//DTD SVG 1.1//EN" "http://www.w3.org/Graphics/SVG/1.1/DTD/svg11.dtd">
<svg version="1.1" id="Layer_1" xmlns="http://www.w3.org/2000/svg" xmlns:xlink="http://www.w3.org/1999/xlink" x="0px" y="0px"
	 width="75.125px" height="40.707px" viewBox="0 0 75.125 40.707" enable-background="new 0 0 75.125 40.707" xml:space="preserve">
<g>
	<path fill="#195FA5" d="M23.072,26.29c0.305,0.602,0.532,1.051,0.785,1.546c-0.708,0.696-1.177,1.56-1.353,2.552
		c-0.325,1.849-0.009,3.608,0.896,5.249c0.242,0.44,0.691,0.602,1.207,0.543c0.198-0.022,0.403-0.032,0.6-0.008
		c0.561,0.07,1.021-0.09,1.305-0.59c0.293-0.519,0.207-1.064-0.186-1.459c-0.382-0.383-0.901-0.541-1.445-0.239
		c-0.129,0.072-0.254,0.15-0.435,0.257c-0.481-1.333-0.71-2.653-0.238-4.009c0.58-1.664,1.891-1.799,3.116-0.92
		c1.05,0.755,1.714,1.84,2.057,3.101c-1.022,0.513-1.323,1.092-0.97,1.838c0.351,0.738,1.398,0.82,2.005,0.286
		c1.014-0.893,0.777-1.848,0.39-2.91c-0.709-1.951-1.788-3.537-3.851-4.244c-0.157-0.053-0.329-0.103-0.493-0.102
		c-0.786,0.009-1.332-0.301-1.564-1.088c-0.059-0.2-0.173-0.381-0.307-0.669c1.142-0.524,2.276-1.058,3.427-1.55
		c0.128-0.054,0.433,0.09,0.538,0.23c1.377,1.813,2.731,3.644,4.096,5.465c0.227,0.303,0.483,0.583,0.803,0.967
		c0.192-1.06,0.408-2.045,0.527-3.04c0.038-0.322-0.13-0.697-0.29-1.003c-0.293-0.563-0.277-1.407,0.108-1.857
		c0.052-0.06,0.133-0.134,0.202-0.136c0.707-0.012,1.414-0.041,2.117,0.016c0.136,0.012,0.239,0.378,0.365,0.574
		c0.344,0.536,0.337,1.011-0.127,1.503c-0.34,0.361-0.291,0.829-0.184,1.306c0.186,0.813,0.306,1.641,0.481,2.597
		c0.652-0.807,1.262-1.519,1.821-2.267c1.037-1.383,2.036-2.793,3.074-4.176c0.097-0.129,0.41-0.235,0.542-0.175
		c1.266,0.568,2.518,1.165,3.758,1.788c0.129,0.063,0.247,0.385,0.197,0.524c-0.351,0.99-0.741,1.968-1.137,2.94
		c-0.127,0.314-0.326,0.346-0.703,0.279c-1.747-0.303-3.162,0.38-3.716,2.242c-0.442,1.48,0.455,3.104,1.986,3.654
		c1.288,0.462,2.694-0.013,3.37-0.906c0.896-1.187,1.048-2.454,0.177-3.773c0.549-1.3,1.077-2.55,1.67-3.958
		c0.838,0.706,1.676,1.393,2.492,2.103c1.252,1.085,1.422,2.53,1.32,4.063c-0.032,0.489-0.027,0.983-0.029,1.475
		c0,0.755-0.303,1.316-0.94,1.753c-2.089,1.431-4.462,2.131-6.886,2.667c-2.373,0.528-4.778,0.829-7.219,0.947
		c-2.607,0.126-5.161-0.139-7.723-0.522c-2.359-0.354-4.659-0.917-6.854-1.844c-0.87-0.366-1.718-0.825-2.492-1.365
		c-0.362-0.253-0.711-0.779-0.741-1.204c-0.09-1.255-0.112-2.529,0.017-3.779c0.142-1.386,1.206-2.253,2.187-3.092
		C21.503,27.291,22.284,26.836,23.072,26.29"/>
	<path fill="#195FA5" d="M27.064,12.208c0.003-1.058,0.128-1.191,0.989-1.503c0.151-0.054,0.294-0.396,0.281-0.594
		c-0.06-0.929-0.241-1.852-0.253-2.779c-0.009-0.809,0.081-1.636,0.265-2.423c0.083-0.359,0.475-0.667,0.77-0.953
		c0.417-0.405,0.979-0.698,1.292-1.164c0.681-1.01,1.704-1.304,2.768-1.417c1.815-0.194,3.629-0.115,5.387,0.49
		c1.72,0.593,3.051,1.56,3.58,3.424c0.332,1.17,0.117,2.296-0.07,3.437c-0.07,0.434-0.174,0.864-0.227,1.301
		c-0.047,0.376-0.031,0.664,0.511,0.758c0.254,0.045,0.606,0.555,0.604,0.852c-0.003,0.882-0.136,1.767-0.273,2.644
		c-0.037,0.249-0.215,0.534-0.416,0.688c-0.87,0.667-1.195,1.628-1.599,2.589c-1.012,2.404-2.875,3.865-5.455,4.135
		c-1.449,0.153-2.766-0.564-3.898-1.502c-1.248-1.035-1.972-2.396-2.454-3.917c-0.086-0.27-0.299-0.539-0.525-0.717
		c-0.656-0.515-0.996-1.197-1.133-1.987C27.122,13.068,27.1,12.559,27.064,12.208"/>
</g>
</svg>
