<?xml version="1.0" encoding="utf-8"?>
<!-- Generator: Adobe Illustrator 16.0.0, SVG Export Plug-In . SVG Version: 6.00 Build 0)  -->
<!DOCTYPE svg PUBLIC "-//W3C//DTD SVG 1.1//EN" "http://www.w3.org/Graphics/SVG/1.1/DTD/svg11.dtd">
<svg version="1.1" id="Layer_1" xmlns="http://www.w3.org/2000/svg" xmlns:xlink="http://www.w3.org/1999/xlink" x="0px" y="0px"
	 width="75.125px" height="40.707px" viewBox="0 0 75.125 40.707" enable-background="new 0 0 75.125 40.707" xml:space="preserve">
<g>
	<path fill="#195FA5" d="M49.243,18.811l-6.072,4.412l2.319,7.139c0.126,0.387-0.012,0.811-0.34,1.049
		c-0.164,0.119-0.358,0.178-0.553,0.178c-0.193,0-0.387-0.059-0.55-0.178l-6.072-4.412l-6.071,4.412
		c-0.33,0.238-0.774,0.238-1.104,0c-0.329-0.24-0.467-0.662-0.341-1.049l2.319-7.139l-6.071-4.412
		c-0.329-0.238-0.467-0.661-0.341-1.047c0.126-0.387,0.486-0.649,0.892-0.649h7.505l2.32-7.138c0.125-0.387,0.485-0.647,0.892-0.647
		c0.407,0,0.767,0.261,0.893,0.647l2.318,7.138h7.506c0.405,0,0.767,0.263,0.894,0.649C49.708,18.149,49.571,18.572,49.243,18.811"
		/>
	<path fill="#195FA5" d="M27.835,22.689l-3.899,2.834l1.49,4.582c0.08,0.25-0.008,0.52-0.219,0.674
		c-0.105,0.076-0.23,0.115-0.354,0.115s-0.248-0.039-0.354-0.115L20.6,27.947l-3.898,2.832c-0.211,0.154-0.497,0.154-0.708,0
		s-0.3-0.424-0.22-0.674l1.49-4.582l-3.898-2.834c-0.212-0.152-0.301-0.424-0.22-0.672s0.313-0.417,0.573-0.417h4.819l1.489-4.583
		c0.08-0.249,0.312-0.417,0.573-0.417c0.261,0,0.492,0.168,0.572,0.417l1.489,4.583h4.818c0.262,0,0.493,0.168,0.574,0.417
		C28.135,22.265,28.046,22.537,27.835,22.689"/>
	<path fill="#195FA5" d="M14.129,26.478l-2.1,1.525l0.803,2.467c0.043,0.133-0.005,0.279-0.118,0.361
		c-0.057,0.043-0.124,0.063-0.19,0.063c-0.067,0-0.134-0.02-0.19-0.063l-2.1-1.523l-2.098,1.523c-0.114,0.082-0.268,0.082-0.382,0
		c-0.113-0.082-0.161-0.229-0.117-0.361l0.802-2.467L6.34,26.478c-0.114-0.084-0.161-0.229-0.118-0.363
		c0.044-0.133,0.168-0.223,0.308-0.223h2.595l0.802-2.467c0.044-0.135,0.168-0.225,0.308-0.225c0.142,0,0.266,0.09,0.31,0.225
		l0.801,2.467h2.595c0.141,0,0.265,0.09,0.309,0.223C14.291,26.25,14.243,26.394,14.129,26.478"/>
	<path fill="#195FA5" d="M48.115,22.689l3.899,2.834l-1.489,4.582c-0.081,0.25,0.008,0.52,0.218,0.674
		c0.105,0.076,0.23,0.115,0.354,0.115c0.125,0,0.249-0.039,0.354-0.115l3.899-2.832l3.898,2.832c0.212,0.154,0.497,0.154,0.708,0
		s0.3-0.424,0.219-0.674l-1.489-4.582l3.898-2.834c0.212-0.152,0.3-0.424,0.219-0.672c-0.08-0.248-0.312-0.417-0.572-0.417h-4.819
		l-1.489-4.583c-0.08-0.249-0.312-0.417-0.573-0.417c-0.261,0-0.491,0.168-0.572,0.417l-1.489,4.583h-4.819
		c-0.261,0-0.492,0.168-0.573,0.417C47.816,22.265,47.904,22.537,48.115,22.689"/>
	<path fill="#195FA5" d="M61.822,26.478l2.099,1.525l-0.802,2.467c-0.044,0.133,0.004,0.279,0.117,0.361
		c0.057,0.043,0.124,0.063,0.189,0.063c0.068,0,0.135-0.02,0.191-0.063l2.099-1.523l2.099,1.523c0.113,0.082,0.268,0.082,0.382,0
		c0.113-0.082,0.161-0.229,0.117-0.361l-0.803-2.467l2.1-1.525c0.113-0.084,0.162-0.229,0.118-0.363
		c-0.043-0.133-0.168-0.223-0.309-0.223h-2.594l-0.802-2.467c-0.043-0.135-0.168-0.225-0.309-0.225s-0.265,0.09-0.308,0.225
		l-0.802,2.467H62.01c-0.139,0-0.264,0.09-0.308,0.223C61.661,26.25,61.708,26.394,61.822,26.478"/>
</g>
</svg>
