<?xml version="1.0" encoding="utf-8"?>
<!-- Generator: Adobe Illustrator 24.1.1, SVG Export Plug-In . SVG Version: 6.00 Build 0)  -->
<svg version="1.1" id="Layer_1" xmlns="http://www.w3.org/2000/svg" xmlns:xlink="http://www.w3.org/1999/xlink" x="0px" y="0px"
	 viewBox="0 0 100 100" style="enable-background:new 0 0 100 100;" xml:space="preserve">
<style type="text/css">
	.st0{fill:#00B8F1;}
	.st1{fill:#0071BB;}
</style>
<g>
	<g>
		<g>
			<path class="st0" d="M50.1,21.5c0,0-11.5-15.5-24.8-11.1s-15.6,7.2-21.8,4c0,0,4.5,5.8,14.8,2.1s13.7-4.2,19.2-0.9
				S40.9,19.8,50.1,21.5z"/>
			<path class="st0" d="M35,16.3c0,0-4-2.4-8.2-0.7c-4.2,1.7-12,6.3-18.6,3.5c0,0,6.7,6.7,13.4,3.5S29.7,14.9,35,16.3z"/>
			<path class="st0" d="M38,18.6c0,0-5.5-1.7-8.7,1.4c-3.3,3-7.8,7-13.8,6.4c0,0,7.5,2.6,13.1-1.6C34.1,20.6,33.9,18.2,38,18.6z"/>
			<path class="st0" d="M42.5,22.6c0,0-5.1-3.2-7.4-1.1s-5.3,8.4-12.4,8c0,0,4.8,3.4,9.3,0C36.5,26.1,36.2,20.8,42.5,22.6z"/>
		</g>
		<g>
			<path class="st0" d="M50.1,21.5c0,0,11.5-15.5,24.8-11.1s15.6,7.2,21.8,4c0,0-4.5,5.8-14.8,2.1s-13.7-4.2-19.2-0.9
				C57.4,18.9,59.3,19.8,50.1,21.5z"/>
			<path class="st0" d="M65.2,16.3c0,0,4-2.4,8.2-0.7c4.2,1.7,12,6.3,18.6,3.5c0,0-6.7,6.7-13.4,3.5C71.9,19.3,70.6,14.9,65.2,16.3z
				"/>
			<path class="st0" d="M62.3,18.6c0,0,5.5-1.7,8.7,1.4c3.3,3,7.8,7,13.8,6.4c0,0-7.5,2.6-13.1-1.6C66.2,20.6,66.3,18.2,62.3,18.6z"
				/>
			<path class="st0" d="M57.8,22.6c0,0,5.1-3.2,7.4-1.1c2.3,2.1,5.3,8.4,12.4,8c0,0-4.8,3.4-9.3,0S64.1,20.8,57.8,22.6z"/>
		</g>
	</g>
	<g>
		<path class="st1" d="M49.2,10.9c0.3,0.1,0.6,0.2,0.9,0.2c0.3,0,0.6-0.1,0.9-0.2c1.1-0.4,1.9-1.4,1.9-2.6c0-1.5-1.2-2.8-2.8-2.8
			c-1.5,0-2.8,1.2-2.8,2.8C47.4,9.5,48.1,10.5,49.2,10.9z"/>
		<g>
			<path class="st0" d="M54.6,22.5c0,0,9.1,2.1,6.5,9.9S38.7,55,39.4,65.8c0.7,10.9,21.7,14.8,21.7,14.8s-24.5-7.1-19.9-17.8
				s19.7-21.7,22.3-29.5C66.1,25.5,54.6,22.5,54.6,22.5z"/>
			<path class="st1" d="M52.4,14.3c-0.5-0.3-2-1.7-1.5-2.7c0.1-0.1,0.1-0.2,0.2-0.3c-0.3,0.1-0.6,0.2-0.9,0.2
				c-0.3,0-0.6-0.1-0.9-0.2c0,0.1,0.1,0.2,0.2,0.3c0.4,1-1.1,2.4-1.5,2.7c-0.5,0.3-1,1.2,0,2.2c0.3,0.2,0.6,0.5,0.9,0.8l1.4,63.3
				l1.4-63.3c0.3-0.3,0.6-0.6,0.9-0.8C53.4,15.6,52.9,14.6,52.4,14.3z"/>
			<path class="st0" d="M45.6,22.5c0,0-9.1,2.1-6.5,9.9c2.5,7.8,22.4,22.5,21.7,33.4c-0.7,10.9-21.7,14.8-21.7,14.8
				S63.6,73.5,59,62.8S39.3,41.1,36.7,33.3C34.1,25.5,45.6,22.5,45.6,22.5z"/>
		</g>
	</g>
	<path class="st1" d="M7.7,88H5.1v6.5h-2l0-6.5H0.6v-1.7h7V88z"/>
	<path class="st1" d="M15.9,94.5h-2.2L13,92.6H9.8l-0.7,1.9H7l3.4-8.2h2L15.9,94.5z M12.4,90.9l-1-2.5l-0.9,2.5H12.4z"/>
	<path class="st1" d="M22.8,94.5h-6.9v-1.6l4.3-4.9h-4.3v-1.7h6.9v1.6l-4.3,4.9h4.3V94.5z"/>
	<path class="st1" d="M31.7,94.5h-2.2l-0.7-1.9h-3.2L25,94.5h-2.1l3.4-8.2h2L31.7,94.5z M28.2,90.9l-1-2.5l-0.9,2.5H28.2z"/>
	<path class="st1" d="M42,92c0,0.9-0.2,1.5-0.7,1.9c-0.5,0.4-1.2,0.6-2.2,0.6h-4.5v-1.7h4.3c0.2,0,0.4,0,0.5,0
		c0.2,0,0.3-0.1,0.3-0.1c0.2-0.1,0.2-0.3,0.2-0.6c0-0.3-0.1-0.5-0.2-0.6c-0.1-0.1-0.2-0.1-0.3-0.1c-0.1,0-0.3,0-0.5,0H37
		c-0.9,0-1.6-0.2-2.1-0.6c-0.4-0.4-0.7-1-0.7-1.8c0-0.9,0.2-1.5,0.7-1.9c0.5-0.4,1.2-0.6,2.2-0.6h4.5V88l-4.2,0
		c-0.4,0-0.7,0.1-0.9,0.2c-0.2,0.1-0.2,0.3-0.2,0.7c0,0.2,0.1,0.4,0.2,0.5c0.2,0.1,0.4,0.2,0.7,0.2h2.2c0.9,0,1.6,0.2,2,0.6
		C41.8,90.5,42,91.1,42,92z"/>
	<path class="st1" d="M50.1,94.5h-2.5l-2.8-3.6v3.6h-1.9v-8.2h1.9v3.5l2.9-3.5H50l-3.2,4L50.1,94.5z"/>
	<path class="st1" d="M52.2,94.5h-2v-8.2h2V94.5z"/>
	<path class="st1" d="M60.7,94.5h-2.1l-3.1-5.6l0.1,5.6h-2v-8.2h2.3l3,5.3l-0.1-5.3h2L60.7,94.5L60.7,94.5z"/>
	<path class="st1" d="M71,94.5h-2.9c-0.6,0-1.1-0.1-1.5-0.2c-0.4-0.1-0.7-0.3-1.1-0.6c-0.4-0.3-0.7-0.8-0.9-1.3
		c-0.2-0.5-0.3-1.2-0.3-1.9c0-1.4,0.3-2.5,0.9-3.2c0.6-0.7,1.6-1,2.9-1H71v1.6h-2.9c-0.3,0-0.6,0-0.8,0.1c-0.2,0.1-0.4,0.3-0.5,0.5
		c-0.3,0.4-0.4,1.1-0.4,2.1c0,0.8,0.1,1.4,0.4,1.7c0.3,0.3,0.7,0.5,1.4,0.5H71L71,94.5L71,94.5z"/>
	<path class="st1" d="M77.4,94.5h-2.2c-0.7,0-1.3-0.1-1.7-0.2c-0.4-0.1-0.7-0.4-1-0.7c-0.1-0.2-0.3-0.3-0.3-0.5
		c-0.1-0.1-0.2-0.3-0.2-0.5c-0.1-0.4-0.2-0.9-0.2-1.5v-4.8h1.9v4.8c0,0.2,0,0.4,0,0.5c0,0.2,0,0.3,0,0.4c0.1,0.2,0.1,0.3,0.2,0.4
		c0.1,0.1,0.1,0.2,0.2,0.2c0.1,0.1,0.2,0.1,0.3,0.2c0.2,0.1,0.5,0.1,0.9,0.1h2.1L77.4,94.5L77.4,94.5z"/>
	<path class="st1" d="M80,94.5h-2v-8.2h2V94.5z"/>
	<path class="st1" d="M88.5,94.5h-2.1l-3.1-5.6l0.1,5.6h-2v-8.2h2.3l3,5.3l-0.1-5.3h2L88.5,94.5L88.5,94.5z"/>
	<path class="st1" d="M91.8,94.5h-2v-8.2h2L91.8,94.5L91.8,94.5z"/>
	<path class="st1" d="M99.4,94.5h-2.9c-0.6,0-1.1-0.1-1.5-0.2c-0.4-0.1-0.7-0.3-1.1-0.6c-0.4-0.3-0.7-0.8-0.9-1.3
		c-0.2-0.5-0.3-1.2-0.3-1.9c0-1.4,0.3-2.5,0.9-3.2c0.6-0.7,1.6-1,2.9-1h2.9v1.6h-2.9c-0.3,0-0.6,0-0.8,0.1c-0.2,0.1-0.4,0.3-0.5,0.5
		c-0.3,0.4-0.4,1.1-0.4,2.1c0,0.8,0.1,1.4,0.4,1.7c0.3,0.3,0.7,0.5,1.4,0.5h2.9L99.4,94.5L99.4,94.5z"/>
</g>
</svg>
